<svg xmlns="http://www.w3.org/2000/svg" viewBox="0 0 950.05 861.43"><defs><style>.a,.b{fill:none;stroke:#000;stroke-miterlimit:10;}.a{stroke-linecap:round;stroke-width:20px;}.b{stroke-width:10px;}.c{font-size:100px;font-family:Helvetica;font-weight:700;}.d{letter-spacing:-3px;}.e{letter-spacing:-7px;}</style></defs><title>ComeAndTakeIt</title><line class="a" x1="375.14" y1="392.22" x2="375.14" y2="695.4"/><line class="a" x1="375.14" y1="392.22" x2="503.27" y2="667"/><line class="a" x1="375.14" y1="392.22" x2="247.01" y2="667"/><line class="b" x1="311.08" y1="522.55" x2="375.14" y2="562.17"/><line class="b" x1="439.21" y1="522.55" x2="375.14" y2="562.17"/><path d="M650.41,198.7c-18.35-23.81-40.66-37.37-49.85-30.29l-59.41,45.77-0.06,0-0.07.06a8.55,8.55,0,0,0-1.19,1.14c-2.56,3-3.23,8-2.23,14.2L207.67,500.77c-3.7,2.85-3.55,9.78-.28,17.91l-12.91,9.94c-4.56-2.86-8.64-3.75-11-2l-0.06,0,0,0-16.38,12.62h0l-0.21.14c-4.49,3.46-1.25,15.18,7.23,26.18s19,17.12,23.47,13.66a1.45,1.45,0,0,0,.19-0.17v0l16.43-12.67a0.15,0.15,0,0,0,0,0c2.36-1.85,2.54-6,.92-11.17l12.9-9.94c7.05,5.27,13.73,7.19,17.44,4.33a5.6,5.6,0,0,0,.52-0.45L591.56,299.81c5.81,2.62,10.87,3.27,14.47,1.54a7.82,7.82,0,0,0,1.49-.91L667,254.62C676.17,247.54,668.75,222.51,650.41,198.7Zm12.12,50.14c-6.24,4.82-24.18-8-40.07-28.61s-23.7-41.23-17.45-46,24.19,8,40.08,28.61S668.78,244,662.53,248.84Z" transform="translate(-28.84 -26.15)"/><path d="M816.13,156.15L772.92,126.7,729.61,156l15.34-49.21L703,75.67l52.7-1,17.38-48.56L790.3,74.76,843,75.89l-42.05,31Z" transform="translate(-28.84 -26.15)"/><text class="c" transform="translate(0 813.34)">COME<tspan class="d" x="300" y="0"> </tspan><tspan x="324.12" y="0">AND </tspan><tspan class="e" x="568.55" y="0">T</tspan><tspan x="622.27" y="0">AKE IT</tspan></text></svg>